<?xml version="1.0" standalone="no"?>
<!DOCTYPE svg PUBLIC "-//W3C//DTD SVG 20010904//EN"
 "http://www.w3.org/TR/2001/REC-SVG-20010904/DTD/svg10.dtd">
<svg version="1.0" xmlns="http://www.w3.org/2000/svg"
 width="500.000000pt" height="500.000000pt" viewBox="0 0 500.000000 500.000000"
 preserveAspectRatio="xMidYMid meet">
<metadata>
Created by potrace 1.14, written by Peter Selinger 2001-2017
</metadata>
<g transform="translate(0.000000,500.000000) scale(0.100000,-0.100000)"
fill="#000000" stroke="none">
<path d="M2255 3928 c2 -21 -1 -36 -6 -32 -5 3 -9 2 -9 -3 0 -10 -163 -9 -179
1 -14 9 -32 -35 -21 -49 4 -5 3 -14 -4 -20 -13 -11 -96 -12 -114 -1 -7 4 -12
3 -12 -2 0 -5 -15 -8 -32 -7 -44 4 -73 -12 -58 -30 13 -15 4 -39 -11 -30 -5 3
-6 -1 -2 -10 5 -15 3 -15 -15 -4 -16 10 -24 11 -33 2 -8 -8 -16 -9 -29 -1 -13
9 -22 6 -39 -11 -11 -11 -17 -21 -13 -21 13 0 10 -30 -2 -32 -6 0 -22 -1 -36
-2 -21 -1 -25 -6 -24 -28 1 -16 -3 -28 -8 -28 -5 0 -7 -4 -4 -9 3 -5 -8 -7
-24 -6 -29 2 -46 -16 -33 -37 4 -7 1 -8 -7 -3 -9 5 -10 2 -6 -12 5 -15 1 -19
-26 -21 -39 -3 -40 -5 -40 -37 0 -30 -13 -40 -49 -37 -27 2 -33 -17 -14 -47 5
-10 4 -12 -3 -7 -7 4 -12 1 -12 -8 0 -12 -6 -13 -31 -6 -18 5 -29 7 -25 3 3
-3 1 -12 -4 -19 -6 -6 -10 -16 -9 -20 1 -5 -1 -17 -6 -27 -6 -14 -10 -15 -21
-6 -10 8 -14 8 -14 1 0 -6 -6 -9 -14 -6 -10 4 -13 -3 -11 -26 1 -16 -2 -33 -7
-36 -5 -3 -5 -11 0 -17 8 -11 8 -18 4 -54 -1 -7 -7 -13 -13 -13 -5 0 -7 6 -3
13 6 9 5 9 -7 0 -14 -11 -19 -13 -38 -13 -5 0 -8 -33 -7 -72 2 -44 -1 -76 -8
-80 -7 -5 -6 -8 3 -8 11 0 11 -3 0 -17 -12 -15 -12 -16 1 -8 13 8 13 7 1 -9
-8 -10 -23 -15 -33 -13 -10 3 -18 1 -18 -5 0 -5 -5 -6 -10 -3 -7 4 -9 -6 -7
-29 2 -20 0 -36 -5 -36 -5 0 -6 -5 -2 -12 11 -17 10 -78 -1 -78 -7 0 -7 -3 0
-8 19 -14 14 -42 -9 -43 -46 -3 -51 -4 -48 -16 1 -7 -3 -13 -10 -13 -9 0 -9
-3 0 -12 7 -7 8 -17 2 -29 -7 -12 -6 -20 0 -24 8 -5 7 -11 -1 -21 -9 -11 -9
-14 0 -14 9 0 9 -5 1 -20 -6 -11 -7 -20 -1 -20 12 0 9 -33 -4 -42 -6 -5 -5 -8
3 -8 9 0 10 -5 3 -19 -6 -10 -8 -21 -5 -24 9 -9 11 -68 2 -73 -4 -3 -4 -14 2
-24 7 -13 6 -20 -3 -23 -8 -4 -8 -8 -2 -14 14 -12 17 -33 4 -33 -8 0 -8 -4 0
-13 8 -10 7 -17 -1 -25 -9 -9 -8 -12 6 -12 10 0 14 -5 10 -11 -3 -6 1 -10 12
-9 49 6 49 6 47 -105 0 -60 3 -103 8 -99 5 3 9 0 9 -5 0 -13 22 -10 32 4 5 6
8 5 8 -3 0 -7 3 -11 8 -9 4 3 7 -36 6 -86 -1 -120 0 -124 40 -122 l32 1 -1
-62 c0 -34 2 -70 6 -80 4 -11 8 -14 8 -8 1 7 9 11 19 10 22 -1 45 -23 38 -35
-12 -19 7 -42 33 -41 42 3 57 0 46 -8 -5 -4 -10 -19 -11 -33 -1 -19 4 -26 15
-24 9 1 19 -3 23 -9 5 -7 8 -7 8 2 0 10 3 10 15 -2 8 -8 15 -26 15 -40 0 -23
4 -26 36 -26 26 0 35 4 31 13 -3 8 1 14 9 14 15 0 17 -7 8 -31 -3 -9 -9 -14
-13 -12 -3 2 -6 -7 -6 -20 0 -13 6 -24 13 -24 6 0 12 -4 12 -9 0 -14 28 -7 50
12 19 16 20 16 20 -4 0 -13 -4 -18 -12 -13 -7 5 -8 3 -3 -6 4 -7 2 -16 -6 -21
-12 -7 -12 -9 0 -9 11 0 11 -3 1 -16 -11 -12 -11 -15 1 -12 8 2 13 -3 11 -11
-3 -12 -1 -12 13 -1 12 10 18 11 28 1 7 -7 13 -15 13 -19 6 -30 19 -52 30 -52
8 0 14 6 14 13 0 8 3 8 8 2 4 -6 16 -10 27 -10 11 0 25 -3 32 -8 6 -4 14 -3
19 4 5 8 3 9 -6 4 -9 -6 -11 -4 -5 4 10 17 27 0 30 -31 1 -13 3 -28 4 -34 1
-7 22 -11 56 -9 31 1 58 -2 61 -7 3 -4 11 -5 17 -1 18 11 49 14 43 4 -3 -5 2
-7 13 -4 21 5 35 -29 18 -46 -6 -6 -8 -12 -4 -12 13 -3 27 -6 30 -9 5 -5 55
-5 52 0 -2 3 28 5 66 5 72 0 76 -3 70 -53 -1 -6 3 -12 9 -12 6 0 9 -4 5 -9 -5
-9 33 -6 62 4 7 2 15 0 18 -6 4 -5 12 -6 18 -2 17 11 31 10 39 -2 5 -7 8 -7 8
0 0 12 39 13 57 2 5 -4 13 -3 17 0 11 11 60 10 68 -2 5 -6 8 -5 8 4 0 11 3 11
17 0 15 -12 16 -12 8 1 -8 13 -7 13 8 1 9 -7 17 -9 17 -4 0 7 43 9 60 3 3 -1
10 -1 15 0 6 1 21 4 35 5 14 2 29 3 34 4 5 1 3 8 -5 17 -10 12 -10 17 0 23 7
5 13 12 12 17 0 5 11 8 24 6 16 -2 25 2 25 10 0 9 2 10 8 2 5 -9 130 -13 150
-5 1 0 -2 11 -9 22 -8 15 -8 19 0 15 7 -4 11 1 11 13 0 14 6 19 23 17 13 -2
30 -7 37 -11 8 -5 11 -4 7 2 -4 6 13 10 43 9 28 0 50 -5 50 -11 0 -5 4 -4 9 3
4 8 11 13 15 13 20 -3 24 2 21 25 -1 15 3 28 11 31 8 3 11 10 7 17 -4 7 -1 6
9 -2 15 -12 112 -11 125 1 3 4 2 7 -4 7 -16 0 -10 49 6 55 8 3 18 0 23 -7 6
-10 8 -10 8 1 0 7 6 11 14 8 11 -4 13 -1 9 10 -5 12 -3 14 8 8 12 -7 12 -6 1
7 -8 10 -9 18 -3 22 6 4 7 14 4 24 -6 15 -5 15 10 3 12 -9 17 -10 17 -2 0 8 5
9 19 2 14 -8 20 -7 25 5 3 8 2 12 -3 9 -6 -3 -8 7 -7 21 2 20 9 28 27 31 45 6
51 12 47 44 -3 21 -1 28 7 25 7 -2 18 1 25 7 10 9 11 9 6 0 -4 -8 -2 -11 6 -8
18 7 41 45 28 45 -6 0 -5 8 2 20 9 14 14 16 20 7 6 -9 8 -9 8 1 0 6 3 11 8 11
22 -4 55 2 47 9 -28 19 -3 74 26 56 28 -17 48 68 25 105 -7 10 -6 12 4 6 10
-6 12 -3 8 11 -4 15 0 20 16 19 12 0 27 -4 35 -9 9 -6 12 -5 7 2 -3 6 -2 13 3
16 5 3 8 48 7 101 -1 71 2 96 12 100 8 3 18 3 22 0 5 -3 11 -1 15 5 4 6 10 8
15 5 14 -9 20 24 6 37 -11 11 -10 16 1 27 8 8 11 16 6 20 -10 7 -10 72 0 89 4
6 2 14 -5 18 -9 6 -5 10 12 14 14 4 31 2 39 -4 11 -8 13 -8 7 2 -5 8 -1 12 11
12 10 0 14 4 8 8 -12 9 -18 32 -8 32 5 0 8 11 8 25 0 14 -4 25 -10 25 -5 0 -3
5 5 10 8 5 11 10 5 10 -5 0 -10 11 -10 25 0 14 2 25 5 25 3 0 5 13 5 29 0 16
-3 27 -7 24 -13 -7 -9 12 4 25 9 9 9 12 -3 12 -12 0 -12 2 1 10 11 7 11 10 2
10 -10 0 -10 5 -2 20 7 13 7 20 1 20 -7 0 -7 9 -1 25 5 14 6 25 1 25 -12 0 -9
33 4 42 6 5 5 8 -4 8 -11 0 -11 3 -1 15 9 11 9 15 1 15 -8 0 -9 5 -1 19 12 23
2 32 -27 27 -35 -7 -47 9 -47 68 -1 31 3 56 9 56 6 0 4 4 -4 9 -11 7 -11 9 0
14 8 3 9 6 3 6 -6 1 -9 12 -6 26 2 15 0 25 -7 25 -7 0 -10 4 -6 9 3 6 -4 8
-15 6 -39 -8 -61 17 -37 41 4 4 2 13 -4 21 -9 10 -8 13 2 13 9 0 10 3 4 8 -13
9 -17 62 -4 62 6 0 7 5 3 11 -4 7 -7 21 -8 33 -1 17 -7 21 -34 20 -17 -1 -32
1 -33 5 -5 35 -3 78 4 88 4 6 3 14 -3 18 -6 3 -8 9 -6 13 2 4 -2 13 -10 20 -8
7 -14 9 -14 4 0 -5 -7 -9 -15 -9 -8 0 -15 4 -15 9 0 5 -4 7 -9 4 -4 -3 -8 5
-8 17 -1 45 -3 49 -23 44 -11 -3 -23 -1 -26 4 -3 5 -10 6 -16 3 -6 -4 -8 1 -3
15 4 12 2 21 -4 21 -6 0 -11 5 -11 11 0 5 6 7 13 4 6 -4 4 0 -7 9 -13 10 -25
12 -41 6 -20 -8 -23 -6 -20 11 2 10 -2 19 -8 19 -8 0 -8 3 1 9 11 7 10 11 -3
24 -8 9 -22 14 -30 11 -30 -12 -45 3 -35 36 5 19 5 28 -1 25 -5 -4 -9 -2 -9 2
0 5 -9 9 -20 9 -11 0 -20 -4 -20 -8 0 -4 -5 -8 -11 -8 -5 0 -8 4 -5 9 4 5 0
12 -6 14 -10 4 -10 6 0 6 9 1 10 6 3 20 -6 10 -8 21 -5 23 2 3 -3 11 -13 19
-11 9 -14 10 -9 1 10 -16 -30 -10 -47 8 -10 10 -9 11 2 5 10 -6 12 -4 5 6 -5
8 -9 20 -9 28 0 8 -6 16 -14 19 -8 3 -11 0 -7 -7 5 -7 1 -9 -8 -5 -9 3 -13 11
-9 18 5 8 3 8 -8 0 -16 -12 -85 -12 -96 1 -5 4 -3 10 3 12 9 3 9 10 0 28 -9
20 -17 23 -48 21 -21 -2 -38 0 -38 4 0 4 -7 7 -15 7 -8 0 -12 -4 -9 -9 3 -4 1
-8 -5 -8 -5 0 -13 5 -16 10 -4 6 -11 7 -17 4 -17 -11 -59 -13 -52 -3 3 5 1 9
-4 9 -6 0 -13 7 -16 16 -3 8 -2 13 3 10 5 -4 7 3 4 13 -5 18 -14 19 -109 18
l-104 -2 -1 25 c-3 54 -3 54 -44 55 -22 0 -52 -3 -66 -6 -16 -4 -32 -2 -38 4
-8 8 -11 7 -11 -2 0 -11 -3 -11 -15 -1 -12 10 -15 10 -15 0 0 -10 -3 -10 -15
0 -11 9 -15 9 -15 1 0 -7 -5 -9 -12 -5 -17 11 -58 11 -58 1 0 -4 -8 -4 -17 1
-10 5 -27 6 -38 2 -11 -4 -26 -3 -32 2 -9 7 -13 7 -13 -2 0 -10 -3 -10 -15 0
-11 9 -15 9 -15 1 0 -7 -5 -9 -11 -6 -6 4 -23 8 -39 9 -26 2 -28 0 -25 -36z
m-532 -2601 c-2 -4 -8 -5 -13 -2 -5 3 -11 1 -15 -5 -7 -12 -25 -4 -25 11 0 6
4 8 9 5 5 -3 12 1 15 10 5 12 8 13 20 2 8 -7 12 -16 9 -21z"/>
</g>
</svg>
